<?xml version="1.0" encoding="UTF-8"?>
<svg id="Layer_2" data-name="Layer 2" xmlns="http://www.w3.org/2000/svg" viewBox="0 0 743.76 611.98">
  <g id="Layer_2-2" data-name="Layer 2">
    <g id="P8iC5p.tif">
      <g>
        <path d="M640.41,436.85c-7.77,6.67-17.46,9.9-27.74,10.96-4.95.55-9.92.64-14.89.57-87.84-3.2-180.9,6.46-267.74,1.83-23.62-.96-48.97-5.61-66.5-22.59-18.1-17.4-26.23-40.2-36-62.93-14.61-36-26.81-74.05-41.49-110.03-24.39-57.49-53.84-113.02-81.72-168.91-5.49-9.57-13.67-15.95-24.55-17.56-23.98-4.4-57.61,5.04-73.74-15.18C-.04,45.21-1.63,34.29,1.72,24.73,4.84,15.47,12.74,7.87,21.51,4.17,29.67.67,38.69.16,47.52.02c14.94-.18,33.91.74,48.64,2.73,11.4,1.47,22.51,4.5,32.28,10.69,16.78,10.44,29.1,26.86,38.02,44.23,6.93,13.66,13.78,30.96,21.25,43.48,2.25,3.97,7.43,12.31,11.08,12.85,43.13.69,467.09.76,512.43,1.04,6.48,0,13.27,5.88,18.85,11.15,11.21,10.48,15.78,26.07,12.79,41.15-2.21,12.51-7.9,23.92-12.33,35.65-4.7,12.11-9.02,24.32-13.16,36.66-20.14,58.87-35.28,123.57-62.61,178.58-3.73,6.92-8.16,13.42-14.21,18.52l-.15.12ZM467.25,368.72c11.34-10.31,10.37-24.68,11.01-39.88.49-21.94.49-51.26-.57-73.35-.15-2.55-.36-5.08-.72-7.57-4.41-32.26-37-31.62-38.2,1.74-1.94,27.26-3.19,68.1-.89,96.82,1.32,14.63,13.41,35.12,29.25,22.35l.13-.11ZM348.23,366.62c13.96,9.2,25.15-.98,26.38-15.6,1.35-14.61-3.36-26.42-7.77-41.07-5.41-16.85-11.85-35.43-17.85-50.79-4.92-12.65-12.59-28.59-26.64-31.92-12.64-2.52-19.69,11.11-18.78,22.67.21,5.92,1.75,11.98,3.56,17.66,7.22,21.48,13.49,43.73,21.04,64.76,4.59,12.12,9.04,26.35,19.92,34.18l.15.11ZM546.37,365.97c7.98,7.61,19.86,1.77,26.64-6.06,5.39-6.08,8.71-13.48,11.69-20.99,6.04-15.48,12.45-34.06,17.99-51.4,4.98-17.09,11.84-33.16,6.14-50.32-5.03-13.65-17.87-12.67-27.56-3.4-4.17,3.88-7.32,8.69-9.81,13.88-9.79,22.89-20.1,55.89-27.63,79.22-4.46,14.14-8.12,27.87,2.42,38.97l.12.11Z"/>
        <path d="M514.55,588.26c-52.6-61.4,33.91-149.39,95.5-93.01,33.43,30.26,30.78,75.2-4.72,102.01-28.32,21.59-67.36,20.07-90.63-8.83l-.14-.17ZM556.65,553.33c5.84,5.48,16.96,2.82,20-4.6,4.55-10.91-8.86-18.7-17.87-12.9-6.05,3.45-7.58,12.61-2.27,17.37l.14.13Z"/>
        <path d="M391.44,590.04c-24.44,27.92-63.85,28.09-91.08,5.07-33.05-27.46-34.3-71.65-2.02-100.73,61.8-55.19,150.53,34.97,93.26,95.49l-.15.17ZM333.22,537.24c-4.69,5.16-2.87,14.2,3.48,17.14,9.41,4.92,21.11-4.29,16.19-14.39-3.37-7.18-14.36-8.96-19.54-2.89l-.13.15Z"/>
      </g>
    </g>
  </g>
</svg>