<?xml version="1.0" encoding="UTF-8"?>
<svg id="Layer_2" data-name="Layer 2" xmlns="http://www.w3.org/2000/svg" viewBox="0 0 800.5 693.32">
  <defs>
    <style>
      .cls-1 {
        fill: #e24d00;
      }
    </style>
  </defs>
  <g id="Layer_2-2" data-name="Layer 2">
    <g id="Layer_1-2" data-name="Layer 1-2">
      <g>
        <path class="cls-1" d="M682.33,579.92c14.41,21.96,27.62,41.42,39.61,58.35-19.39-3.71-41.44-7.03-65.9-9.92-71.14-8.42-161.98-13.06-255.79-13.06s-184.65,4.64-255.79,13.06c-24.46,2.9-46.51,6.22-65.9,9.92,11.99-16.93,25.2-36.39,39.61-58.35,40.13-61.16,87.93-139.33,134.57-220.13,46.66-80.82,89.17-159.05,119.68-220.26,11.53-23.13,20.64-42.36,27.83-58.43,7.19,16.07,16.31,35.3,27.83,58.43,30.51,61.22,73.02,139.44,119.68,220.26,46.65,80.79,94.44,158.97,134.57,220.13Z"/>
        <path class="cls-1" d="M400.25.25c0,68.66,320.72,624.16,400,692.82-39.64-34.33-219.82-51.49-400-51.49S39.89,658.74.25,693.07C79.53,624.41,400.25,68.91,400.25.25ZM721.94,638.27c-11.99-16.93-25.2-36.39-39.61-58.35-40.13-61.16-87.92-139.34-134.57-220.13-46.66-80.82-89.17-159.04-119.68-220.26-11.52-23.13-20.64-42.36-27.83-58.43-7.19,16.07-16.3,35.3-27.83,58.43-30.51,61.21-73.02,139.44-119.68,220.26-46.64,80.8-94.44,158.97-134.57,220.13-14.41,21.96-27.62,41.42-39.61,58.35,19.39-3.7,41.44-7.02,65.9-9.92,71.14-8.42,161.98-13.06,255.79-13.06s184.65,4.64,255.79,13.06c24.46,2.89,46.51,6.21,65.9,9.92Z"/>
      </g>
    </g>
  </g>
</svg>