<?xml version="1.0" encoding="UTF-8"?>
<svg id="Layer_2" xmlns="http://www.w3.org/2000/svg" version="1.1" viewBox="0 0 800.5 693.3">
  <!-- Generator: Adobe Illustrator 29.7.1, SVG Export Plug-In . SVG Version: 2.1.1 Build 8)  -->
  <defs>
    <style>
      .st0 {
        fill: #6d84a5;
      }
    </style>
  </defs>
  <g id="Layer_2-2">
    <g id="Layer_1-2">
      <g>
        <path class="st0" d="M682.3,579.9c14.4,22,27.6,41.4,39.6,58.3-19.4-3.7-41.4-7-65.9-9.9-71.1-8.4-162-13.1-255.8-13.1s-184.6,4.6-255.8,13.1c-24.5,2.9-46.5,6.2-65.9,9.9,12-16.9,25.2-36.4,39.6-58.3,40.1-61.2,87.9-139.3,134.6-220.1,46.7-80.8,89.2-159.1,119.7-220.3,11.5-23.1,20.6-42.4,27.8-58.4,7.2,16.1,16.3,35.3,27.8,58.4,30.5,61.2,73,139.4,119.7,220.3,46.7,80.8,94.4,159,134.6,220.1Z"/>
        <path class="st0" d="M400.2.2c0,68.7,320.7,624.2,400,692.8-39.6-34.3-219.8-51.5-400-51.5S39.9,658.7.2,693.1C79.5,624.4,400.2,68.9,400.2.2ZM721.9,638.3c-12-16.9-25.2-36.4-39.6-58.3-40.1-61.2-87.9-139.3-134.6-220.1-46.7-80.8-89.2-159-119.7-220.3-11.5-23.1-20.6-42.4-27.8-58.4-7.2,16.1-16.3,35.3-27.8,58.4-30.5,61.2-73,139.4-119.7,220.3-46.6,80.8-94.4,159-134.6,220.1-14.4,22-27.6,41.4-39.6,58.3,19.4-3.7,41.4-7,65.9-9.9,71.1-8.4,162-13.1,255.8-13.1s184.6,4.6,255.8,13.1c24.5,2.9,46.5,6.2,65.9,9.9h0Z"/>
      </g>
    </g>
  </g>
</svg>