<?xml version="1.0" encoding="UTF-8"?>
<svg id="Layer_2" xmlns="http://www.w3.org/2000/svg" version="1.1" viewBox="0 0 1409.2 1569.1">
  <!-- Generator: Adobe Illustrator 29.7.1, SVG Export Plug-In . SVG Version: 2.1.1 Build 8)  -->
  <defs>
    <style>
      .st0 {
        fill: #f4a647;
      }
    </style>
  </defs>
  <g id="Layer_1-2">
    <g>
      <path class="st0" d="M771.1,4c.9.8,2.9-2.9,4.9-3.1,11.7-1.2,13.2,7.1,14.1,7.1s2.3-3.3,4-3.3c1.6,0,3.1,3.3,5.7,2.9,1.5-.2,3-3,6-3.2,6.1-.3,8.1,5.5,8.7,5.6,6.3.6,9.2-6.9,13.7,3.9l8.9-3.9c.3,6.6,5.8,3.8,9.1,7.9l2-4.1c4.1-.6,8.5,4.6,12.8,5.3,3.9.6,7.4-1.7,10.8-1.2.6,0,5.1,6.8,8.4,8l6.9-4,1,6.1c5.4,0,8.3,1.5,9.9-4.1l6,10,6.9-4c.2,8.1,5.8,3.4,8,4.9,3.2,2.2.4,9.6,11,1.1l3.2,7.7c12.5-2.9,12.5,7.3,21.6,8.9,3.1.5,6.4-1.1,8.8-.4,3.2,1,3.6,5.8,5.3,7,2.5,1.5,5-1.2,6.8-1.1,3.2,0,14.8,10.9,15.8,11.3,11.4,4.6,47.2,20.4,55.4,29.7,1.9,2.2,1.6,5.8,2.4,6.5,1.4,1.2,11,.1,15,3,2.2,1.6,11.4,13.8,13.1,14.8,9.7,6.1,20.9,11.1,30.2,18.8,14.2,11.7,28.9,28.8,42.3,37.6,8.2,5.4,12.3,12.7,18.9,19.2,262.2,259.2,316.9,694.3,129.7,1013.1-90,153.2-235.6,264.3-399.5,330.2l-34,9,2,6c-5.5-3.2-9.6,1.1-15.2,1.8-22,2.5-48.9,3.3-69.6,6.2-3,.4-5.1,3.7-8.1,3.9-9,.6-49.6-19.3-57.5-25.9-12-10.1-17.5-24.5-25.8-36.6-107.5-154.7-218.6-308.2-325.4-462.6-27.3-39.5-52-81.2-80.8-119.6-33.1-44.2-86.1-109.2-139.1-47.2-12.6,14.8-19.3,46.3-21.6,65.9-7.6,67.2,43.2,175,79.4,231.4,44.8,69.7,100.5,131.8,167.3,180.5,47.6,34.7,110.6,57.3,98.2,130.7-.5,2.8-3.8,13.3-5.6,14.6-6,4.4-16.6-1.4-17.1,9.1-4.5-1.2-9.7,1.6-13.6,1.2-16.6-1.4-50.1-17.3-65-26.6C78.8,1305.1-50.5,937.1,18,609.3,57.9,418.4,163.5,224,325.4,111.1c25.6-17.9,78.1-53.1,108.9-48.8,1.2.2.8,3,1.2,3.2,1.5.6,3.1-1.5,4.4-1.4s.9,2.7,2.9,3.7c1.5.8,4.4,0,6.2,1.4,1.8,1.3,10,11,11.1,13s-.8,4-.3,5.4c.1.4,2.9.3,3.2,1.7s-1,5.9-.9,8.6c3.3,55.9-38,70.9-74.9,99.2-130,100.1-219.3,233.9-263,392.6-12.5,45.2-22.4,95-22.9,141.9,23.1,7.1,31.8,3.6,48.7-12.1,40.1-37.4,73.4-83.3,109.2-124.7,120.5-139,241.2-278.5,353-424.6,22.3-29.2,44.1-55.4,59.4-87.6.2-.5,5.5-7.8,5.9-8.2,1.4-1.3,5,0,5.5-.4.4-.3-1.8-4.7-1-7.9.2-.8,8.5-11.6,10.1-14,3.4-4.9,5.4-7.6,10.3-12.8,1.5-1.5-1.5-7.1,6.6-5.3l-4-6.9,13.7-3.3,2.2-8.8c2-1.5,8.1,5,11-4.8l5,4,3.2-5.8c8.9,2.2,22-2.9,29.9-8.2l1,4h0ZM1093.6,1298.1c208.7-201.9,255.1-491.8,163.1-763.2-52.6-155.1-176.3-309-324.9-380.7-9.2-4.4-65.4-29.8-70.7-24.2,2.2,24.9,2.3,50,2.1,75.1-2.6,358.8-9.7,717.4-.9,1077.8,1,41.2,3.8,84.8,2.8,125.7-.2,7.3-7.4,35.5,2.6,34.6,84.2-33.3,161.2-82.4,226-145ZM743.1,195.9c5.2-2,6.7-6.7,6-12-4.5,1.7-6.2,7.6-6,12ZM751,1377.3c-.4-17.6.6-35.4,0-53.1-9.4-329.3-.9-656.4-2.2-985.5l2.3-35.9-.2-106.9c-41.8,45.1-80.3,93.6-120.9,140-76.7,87.6-157.2,172.2-230.9,261-4.2,5.1-8.9,12.7-12,15.9-7.1,7.6-5.1,3.3-12.2,13.7-8.4,12.3-26.2,27.3-33.7,40.8-8.1,14.7-11.5,35.9-19.8,51.4-.1,51.6,11.8,81,38,123.6,81.1,131.7,186.2,249.1,272.2,376.5,5.2,7.7,8.7,11,14.1,16.8,12.1,13,15.2,25.9,28.1,37.9,11.5,10.7,31.6,40.2,41,53,12.3,16.7,23.8,34.2,36,51h0ZM249.3,217.9h-6v4h6v-4ZM1199.9,274.8c-2.7-3-6-6.3-9.1-9-1.8,9.8,11.3,8.5,10,18,9.9-.3,1.1-6.7-.9-9h0ZM829,269.9c-8.9-1.8-1.9,11,2,8l-2-8ZM673.1,273.9c-6.4-5.6-9,10.7-2,5,1.5-1.2,3-4.1,2-5ZM1286.8,425.8c7.7,1.1,7.1,11.6,9.2,15.8,17.6,36.6,34,75.3,45.4,114.6.7,2.5-.7,5.1.4,7.5,2.2,3.2,8.4.6,11.1-1-10.2-6.2-5.3-10-6.8-17-1.5-6.8-6.7-19.4-7.2-25.1-.3-2.6,1.3-4.6,2.1-6.9l-7.2-1.9c-.5-10.5-3.9-20-8.7-29.3v-2.9c3.8-.1,7,1.6,5.9-4l-14-4.1,2.1-12.8-10.1-5.2,6-3c-5.3-5.2-2.5-15.8-12-17v-1.9c4.9.5,4.3-1.6,4-6-10.4,2.3-7-11.7-8.9-15.9-2.5-5.3-14.8-16-17-23.1l6-3c-7.2-.1-5.6-6.9-7.9-10.6-1.4-2.2-5.9-3.2-8.2-6.3-5.8-8-11.8-23.6-17.9-32.1-7.1-9.9-23.7-24.5-32.9-35.1-3.7-4.2-6.1-13.4-15.1-13.9,24.6,32.6,44.7,68.3,65.6,103.4l-.6,6.5-4-2-5,10c5.3.8,8.5-1.8,9.8-6.7l4.1-1.2c4.7,10.6,9.4,18.6,12,30-8.2-1.2-7.6,10.1,2,8,.7-.6-1.6-6.1-2-8h0ZM833,289.9h-10v8c1.3,1.4,11.8-3.6,10-8ZM171.4,311.8c3.8.6,6.6-2.3,6-6l-6,2v4h0ZM825,313.9c.9,7-2.8,16.5,3,21.9,4.9-3.8-.3-9.7,0-15.1.1-2.4,7-5.8-3-6.9ZM1263.5,327.1c-1.6-1.8-2.1-5-4.7-5.3-.4,5.6,2.7,11.5,8,14,3.1-8,0-5.1-3.3-8.7ZM163.3,325.9c-4.1-.9-4.5,2.1-6.4,4.5-15.9,20.5-31.6,52.6-42.2,75.8-5.8,12.8-13.6,25.4-15.3,39.6l16.5-32.5,2.6-13.4,44.9-74h0ZM1225.1,330.9l-2.1,8,4.2,1.1,2.1-8-4.2-1.1ZM1272.3,340.5c-1.6-.7-5.1-1.8-5.5.4l10,9c1.8-2.5-3.2-8.8-4.4-9.4ZM829,345.8h-4s-1.4,7.1-1.4,7.1l2.4,2.9h3v-10h0ZM1284.8,361.8c.7-3.6-2.2-6.6-6-6v4l6,2h0ZM827,381.8c.3-6,2.8-12.5-1-18-4.2,2.6-1.8,4.6-1.7,7.5,0,2.1-.2,10.7,2.7,10.5ZM1250.6,364.1l-5.2,2.7,1.7,6.8c11.9,1.9,8.4-2.7,3.5-9.5h0ZM1292.8,371.8c-8.7-1.1-4.7,10,2,10l-2-10ZM1262.8,381.8h-6s2.1,9.9,2.1,9.9h5.9c0,0-2-9.9-2-9.9h0ZM829,383.8c-4.5-1.2-4.9,2-5.5,5.5-1.2,7.7,1.8,13.3-.5,20.5l6-1.3,2.1-7.5c-6.2-1.2-3.2-11.7-2.1-17.1h0ZM1236.8,393.8c-1.1-4-4.3-4.5-8-4v4h8ZM1312.8,415.8c2-3.2-6.4-21.6-10-18l10,18ZM1274.8,415.8l-3.7,5,4.7,5c7.8-1.9,0-21.8-4-21.9l-2.8,8.8,5.8,3.2ZM831,411.8l-7.5,3.2,1.5,20.7c5.7-3.2,4.8-14.2,2.1-19.1l3.8-4.8h0ZM829,445.8c-1.2-1.1-6,1.7-6,3,0,5.5,9,0,6-3ZM75.4,497.8c9.3-12.1,15.2-29.3,19.9-44-10.8,12-13.1,29.6-19.9,44ZM1337.6,471c-1.3-1.2-.3-3.8-1.8-3.2l-2.9,4.8c1.5,2.5,4.3,4.1,5.7,6.5,2.6,4.6-2.4,9.2,3.1,8.6,5.4-4.7-1.2-13.9-4.2-16.8h0ZM363.2,489.8l-8,6c8.6-5.3,3,2.8,10,2l-2-8h0ZM357.2,497.8l-7,1.9-.9,6h3l5-8h0ZM347.2,509.8c-3.7-.5-6.9,0-8,4h8v-4h0ZM419.2,539.7c-1.4-3.3-4.4-6.6-8-6,1.4,3.3,4.4,6.6,8,6ZM405.2,547.8c-3.8,3.5,8,9,8,3,0-2.1-6.6-4.2-8-3ZM43.4,563.7c-1.2-8.1-10.1,1.3-8,4l8-4ZM1356.8,569.7c-6.6,1-5.6,6.1-12,0l2,18,10-2c1.7-6.9-8-2.2-8-9s9.7-.7,8-7h0ZM393.2,577.7c.5-5-3.2-6.7-8-6v4l8,2h0ZM835,581.7l-8-2v6h8v-4s0,0,0,0ZM825,593.7l-3-10c-4.5,3-1.8,5.8-1,10h4,0ZM1358.8,589.7l-10,2c-.3,7.9,10.1,10,6,18l8-4-8-11,4-5h0ZM377.2,591.7c-3.9,2-12.7-2.9-10,5,2.4,6.9,10.5-4.5,10-5ZM363.2,593.7c-5.4-1.3-4.6,3.6-6,7.2l4.1,8.8c7-2.5.6-10.4,2-16h0ZM827,613.7c11.4-4.8,2.1-13.8,0-6.9-.6,1.9.1,4.7,0,6.9ZM355.2,613.7c.5-3.7,0-6.9-4-8v8h4ZM1362.8,611.7h-4l-2,10c4.2-1.7,6.8-5.4,6-10ZM823,615.7c-2.4-3.2-3.6,0-4,3-1.1,9.1.7,18,0,27,2.9.4,3.6-5.2,3.8-7.2.8-7.5-.2-15.3.2-22.8h0ZM835,627.7c2.2-3.1-4.1-7.6-8-6v8c.4.4,7.7-1.7,8-2h0ZM1364.7,623.7h-4v8h6l-2-8ZM833,635.7c-5-.5-6.7,3.2-6,8h4l2-8h0ZM1364.7,637.8c-2.6-1.9-7.1,2.8-5.9,6.9l14,3c1.4-5.9-3.5-3.8-6.6-5.9-1.6-1.1-1.3-3.8-1.4-4h0ZM1388.7,647.7c1.2-1.2-1.7-6-3-6-5.5,0,0,9,3,6ZM823,647.7c-7.7-1.6-2.7,11.6-4,16,4.4-.2,4.7-15,4-16ZM830,647.7v15.9c4.1-1.4,7-17,0-15.9ZM761,649.7c-1.1-1.2-5,1.1-6,3l2,5c3.4,0,5.3-6.5,4-8h0ZM1372.8,651.7l-10-2c1.7,4.3,5.4,6.8,10,6v-4h0ZM1362.8,667.7c7,3.4,13.9.5,7-5.9l-7,5.9ZM823,673.7l-4-8v28c5.8-.7,1.4-15.4,2-16h11.9c0-.1,0-6,0-6l-10,2h0ZM75.1,669.3l-3.8,10.7,4.5,1.6,3.8-10.7-4.5-1.6ZM835,683.7l-6.7.2-3.2,4.7,3,3,7-4v-4h0ZM1370.8,683.7l-4,10c5.2.7,9.1-.6,11.9-5.1l-3.9-4.9-5,6,1-6h0ZM837,693.7c-.8-.7-12.1,2.6-12,6,1.6.5,16.5-2.1,12-6ZM1373.3,710.9c2,.9,6.2.2,7.4-2.2-1.8-3-5.6-2.5-8-4.1-2.3-1.6.6-6.5-3.9-6.9-1.1,4.2.4,11.4,4.5,13.2ZM821,743.6c1.2-8.2-1.1-17.3-1-25,0-4.9,5.6-13.9,0-18.9-4.8,0-1.8,20.3-1.7,22.6,0,5.8-4.6,17.1,2.7,21.3ZM827.1,704.3l-2.2,13.1,4.4.7,2.2-13.1-4.4-.7ZM763,707.7c-4.2-.2-7.5-.8-10,3l3,3,7-5.9h0ZM1368.8,721.6c4.2.2,7.5.8,9.9-3l-7-5h-2.9s0,8,0,8ZM1388.8,751.6c.8-.2,4.2-4,8-2l-2-3-20-4.9c4.1.2,12.3-9.5,13.1-9.7,3.4-.8,14.2,6.1,16.9-2.3h-18s13.6-8.4,13.6-8.4l.4-5.6c-9.1,3.5-14.5,11.6-25.7,10.2l-6.3,16.8,11.9,5.1-1.9,5.8c3.2-.8,6.8-1.2,10-2-1.4,7,12.2,3.3,16,6-2.5-5.5-11.1-4.1-16-6h0ZM761,721.6l-3-4h-3v6l6-2h0ZM833,735.7h-3l-5,6h8v-6h0ZM833,747.7h-8v6l8-2v-4h0ZM1376.7,759.6c-1-4.4,1.3-12.6-6-12l6,12ZM1384.5,766c-2.7-1.7-6,.1-7.7,2.6l7,11,1-6,10-1c-8.1,1-9-5.9-10.3-6.6h0ZM1406.7,783.6v-4l-12,2c.3,5.5,10.7,3.5,12,2h0ZM1382.7,795.6h-9.9l-4,16c11-7,8.9,5.1,18,4-2.4-8.8-4.2-11.3-14-10v-6c.5-.7,10.4,10.8,10-4h0ZM1376.9,827.5c1.8-4.2-1.2-8.2-6.2-7.8,7.4,5.2,2.8,19.1,12,20l-4-8c4.1.4,4.6.2,4-4l-5.8-.2ZM1402.7,819.6h-6l2,8c4-1.1,4.5-4.3,4-8h0ZM1376.6,847.8l-7.9,3.9,6,7.9-6,4,16-3-2-5.9,6,1c1.5-6.9-6.9-1.4-6.1-7.9h-3.9c0,0,1,3.9,1,3.9l-3.1-3.8h0ZM1378.7,895.6l-1-8-5,5v3h6ZM31.4,905.5c.6-3.8-2.3-6.6-6-6l2,6h4ZM1374.7,907.6h-8v3l3,3,5-2v-4h0ZM1374.8,919.6c-6.4-1.5-4,8.6-6,12,6.4,1.5,4-8.6,6-12ZM383.2,933.6h-4v6h4v-6ZM373,946c0-2.3-1.9-4.2-4.2-4.2s-4.2,1.9-4.2,4.2,1.9,4.2,4.2,4.2,4.2-1.9,4.2-4.2ZM387,943.8l-5.8.7c2.6,2.4,4.2,5.8,8,5l-2.2-5.7h0ZM381.2,959.5l-1-8c-3.1,2.2-3.5,4.3-3,8h4ZM391.2,959.5c-5.1-1.4-4.8,4.1-7.2,7l5,5.3-1.7,5.6,6-1.1-2.1-16.9h0ZM493.2,1083.5c-3.7-5.3-9.9-19.9-14.9-24.2-2.2-1.9-7,1.2-9.1-2.8l8-3h-10s4-8,4-8h-11.9c-2.2-7,5.9-7.3,7.9-12l-10,4c-.9-4.6-5.3-7.1-2.1-11.9-5.8-2.4-7.2-1.9-11.9,1.9l2-18-10,4c-1.3-9.4-5.8-20.1-15-24-7.5-3.2,2.2,12.9-3,11-2.9-3.7-12.1-19.5,0-13,1.7-8.4-3.7-9.5-9-14-4.9-1-.9,5.6-.9,8.9,0,4-.2,3.2-4.1,3-3.8-5.7,1.8-15.1,1.6-16.6,0-.6-4-11.5-7.6-9.4l4.1,12.8c-15.8,10.5,2.1,14.4,5,19.2,1.7,2.7-1.9,6.9-1.2,8,.8,1.1,13.6,1.6,10,14,11-4.4,15,1.4,12,12,11.3-5.6,12,10,15,14,1.7,2.3,8.5.6,8.9,9.1-3.2,1.5-4.8,0-3.9,4.9,9.8-4.2,11.4,7.3,15.9,13.1,1.8,2.2,6.2,3.2,7.1,4.9s-1.7,5.5-1.1,6.1c.5.4,4.1-1.1,6.2,1.3,1.7,1.9,5.2,14.1,6.1,14.7,7.6-3.8,5.8,3.7,11.7,4.1v3.8c-11.6,2.7-.7,3.5,1.9,5.2,4.7,3,5.8,11.4,14.1,11l-4,5.9c1-.2,2.7,0,3.2.7,3,4.5,19.6,29.8,21.2,31,3.1,2.5,12.6,4.6,15.6,11.3l-3.9,1.1c-1.9,5.3,3.3,3.6,5.9,6.8,2.8,3.4,3.5,8.1,7,11.1,6-5,6.2-12.8,0-17.9l-7,5.9,4-10-7.2-1.9-.9-14.1-8,2,4-10-8,2v-6s-6,2-6,2c4.4-4.2,4-11,1-16.1-.5-.8-14.6-3.5-9-11.8l-8,2,2-6-8,4,5.9-11c-3.9-5.8-7.6-.8-11.9,1,3.7-9.2.5-9.5-4-16h4v-3c-1.8-2.2-3-3.7-6-3l2,6h0ZM1364.8,979.5l-8,1,5,3,3-4ZM819,1023.5c5.7-5.3,7.6-26.7,1-32l-1,32ZM391.2,1003.5l-6-3.9-2,5,3.9,3,4-4h0ZM1352.7,999.5c-5.9-1.4-4.2,3.7-3.6,7.7l7.7,2.3-4-10h0ZM837,1021.5c-.4-2.3-8.2-10-10-8v8s10,0,10,0h0ZM1350.8,1015.5c-2.6-2-9.2,3.3-10,6,4.4.8,8.5-1.9,10-6ZM823,1029.5c-4.9-6.2-4.3,13-4.1,15.1.3,3.4-.2,6.6,3.1,8.9l1-24h0ZM831,1029.5h-4l2,8h2v-8h0ZM1348.8,1029.5h-6v4h6v-4ZM1348.8,1037.5c-5.9-2.6-9.2-.8-14,3,1.4,3.6,15.9,4.7,14-3ZM833,1059.5c-5.2-3.2,4.6-20.3-1-19.9-3.7.3-6,16.5-5,20h6ZM1330.8,1052.3l-1.9,5.7,12,4.1,1.9-5.7-12-4.1ZM823,1055.5c-8.8-.3-3.7,13.7-4,18,6.6-3,3.3-12.3,4-18ZM829,1081.5c4.5-1.2,4.2-6.3,4-10-4.5,1.2-4.2,6.3-4,10ZM1334.8,1077.5c-2.1-5.5-9-5.5-11.9-1l3,3,9-2ZM823,1083.5c-8.5-1.3-1.2,10.3-2,14,5.2,2.1,3.2-3.6,5.3-4.1,2.7-.6,5.9.3,8.7,0l-5-7.9-9,5.9,2-8h0ZM1328.8,1089.4c.4-3.4-11.4-4.3-11.8-3.8-1.3,1.6-3.9,11.2,2.9,7.9,2.7-1.3,5.2-4.3,9-4.1h0ZM1344.8,1089.5c-1.2,1.2,1.7,5.9,3,5.9,5.5,0,0-9-3-5.9ZM1322.8,1107.4l-7-6-3,5,10,1ZM833,1113.4c.5-3.7,0-6.9-4-8v8h4ZM95.4,1111.5c-1.2-1.2-5.9,1.7-5.9,3,0,5.5,9,0,5.9-3ZM1312.8,1119.5h-8c0,8,8,7.9,8,0ZM1318.8,1125.5h-4v6h4v-6ZM825,1131.5h-4v10h2l2-10h0ZM1292.8,1163.4l-1-8c-3.1,2.2-3.5,4.3-3,8h4ZM827,1177.4c-2.9-.7-4.2.8-6,3l2,5h2l2-8h0ZM565.1,1181.4c-10.1,1.1-11.3,13.4,0,12v-12ZM575.1,1195.4l-10,3c4.1,2.6,6.2,3.2,6.4,8.6l5.6.4-1.8,7.7,6.9,3.8,4.9-4.4c-3.5-3.9-11-4.5-8.1-10.9l-5.9-.2,2-8h0ZM1272.8,1199.4h-8v2l8,2v-4h0ZM591.1,1229.4l-2-8h-2l-2,8h6,0ZM593.2,1233.4c7.3,11.3,13.5-8.5,4-2.7l-4,2.7ZM609.1,1245.4c-2.9-.7-4.2.8-6,3l2,5h2l2-8h0ZM617.1,1265.4v-8l-6,2,6,6ZM243.3,1299.4c7.3,0,7.3-5.9,0-6v6ZM1182.8,1313.4l-8,1,6,5,2-6ZM1174.8,1321.4h-6v4h6v-4ZM1149,1339.7c6.6-5.8,17.4.4,17.8-10.3-4,4.9-11.1,1.2-13.5,2.4-.5.3-.6,2.8-1.9,3.6-9.2,5.7-12.5,11.1-21.6,16v2c4.5,2.3,7.6,4.3,7.1,10,7.6-1.9,1.6-12.1,2.9-14l8.1-.4,2.9-2.6-1.8-6.7h0ZM1123,1357.4c-.4,4.9-5.1,6-8.1,8.9l5,6.9c3.3-5.3,15.5-14.4,3.1-15.8h0ZM1102.9,1379.3c24.4,8.7,10.6-18.8-2-4.8-1.8,2.1,0,5.2-3.1,6.9-7.5-2.9-10.8-4-19-2l2,16c-6.9,3.1-6.5-6.9-11-6-4.3,2-.5,7.5-2.9,9-3.3,2.1-9.8.6-12.3,4.3v9.3l11.2,5.3.9-10.9,4-1,8,8v-11.8c0,0,24-8.2,24-8.2l-6-8.9,6,1v-6ZM1052.9,1373.3h-6l2,8c3.4,0,5.3-6.7,4-8ZM1070.9,1381.3c-3.6-.7-6.6,2.7-8,6,3.6.7,6.6-2.7,8-6ZM1016.8,1391.5l-5.8.8c2.2,4.5.2,13.3,7.9,13l-2.2-13.8ZM1043.6,1426.1c3.1-1.4,12.4-3.3,11.3-7.8-6.3-6.5-13.1-8.2-22-7l2,8c-12,1.4-19.1,13.4-32,12,.6,6.2,1.8,19.1,10.8,18.1.4,0,2.5-4.4,6-6.2,3.8-1.9,9.9-2.3,12-3.8,1.9-1.3.2-6.7,4.9-6.4l.3-3.7c-5-.7-6.9-2.7-6-8,9.2-.2,3.2,5,11,8,.8,0,.9-2.9,1.6-3.2h0ZM998.9,1449.3c-11.8-14.7-9.8,5.8-20.7,4.1-3.4.5-2,6.8,3.7,8s10.2-6.1,17.9-6l-7-2.1,6-4h0ZM970.9,1457.3c-2.6-3.3-16.4,13.3,0,12v-12ZM955,1475.3l-8-2,7,6,1-3.9Z"/>
      <rect class="st0" x="513.2" y="1121.5" width="4" height="6"/>
    </g>
  </g>
</svg>