<?xml version="1.0" encoding="UTF-8"?>
<svg id="Layer_2" data-name="Layer 2" xmlns="http://www.w3.org/2000/svg" viewBox="0 0 800 692.82">
  <defs>
    <style>
      .cls-1 {
        fill: #9aa7c1;
      }
    </style>
  </defs>
  <g id="Layer_1-2" data-name="Layer 1">
    <path class="cls-1" d="M400,80.85c7.19,16.07,16.31,35.3,27.83,58.43,30.51,61.22,73.02,139.44,119.68,220.26,46.65,80.79,94.44,158.97,134.57,220.13,14.41,21.96,27.62,41.42,39.61,58.35-19.39-3.71-41.44-7.03-65.9-9.92-71.14-8.42-161.98-13.06-255.79-13.06s-184.65,4.64-255.79,13.06c-24.46,2.9-46.51,6.22-65.9,9.92,11.99-16.93,25.2-36.39,39.61-58.35,40.13-61.16,87.93-139.33,134.57-220.13,46.66-80.82,89.17-159.05,119.68-220.26,11.53-23.13,20.64-42.36,27.83-58.43M400,0C400,68.66,79.28,624.16,0,692.82c39.64-34.33,219.82-51.49,400-51.49s360.36,17.16,400,51.49C720.72,624.16,400,68.66,400,0h0Z"/>
  </g>
</svg>